<svg width="390" height="844" viewBox="0 0 390 844" fill="none" xmlns="http://www.w3.org/2000/svg">
<g clip-path="url(#clip0_854_1067)">
<rect width="390" height="844" fill="#231F20"/>
<path d="M443.374 837.82C443.374 869.985 417.299 896.06 385.134 896.06C352.969 896.06 326.893 869.985 326.893 837.82C326.893 805.655 352.969 779.579 385.134 779.579C417.299 779.579 443.374 805.655 443.374 837.82ZM353.102 837.82C353.102 855.511 367.443 869.852 385.134 869.852C402.825 869.852 417.166 855.511 417.166 837.82C417.166 820.129 402.825 805.788 385.134 805.788C367.443 805.788 353.102 820.129 353.102 837.82Z" fill="#FCB913"/>
<path d="M187.819 837.82C187.819 869.985 161.744 896.06 129.579 896.06C97.4132 896.06 71.3381 869.985 71.3381 837.82C71.3381 805.655 97.4132 779.579 129.579 779.579C161.744 779.579 187.819 805.655 187.819 837.82ZM97.5463 837.82C97.5463 855.511 111.888 869.852 129.579 869.852C147.269 869.852 161.611 855.511 161.611 837.82C161.611 820.129 147.269 805.788 129.579 805.788C111.888 805.788 97.5463 820.129 97.5463 837.82Z" fill="#FCB913"/>
<path d="M316.413 837.82C316.413 869.985 290.338 896.06 258.173 896.06C226.008 896.06 199.932 869.985 199.932 837.82C199.932 805.655 226.008 779.579 258.173 779.579C290.338 779.579 316.413 805.655 316.413 837.82ZM226.141 837.82C226.141 855.511 240.482 869.852 258.173 869.852C275.864 869.852 290.205 855.511 290.205 837.82C290.205 820.129 275.864 805.788 258.173 805.788C240.482 805.788 226.141 820.129 226.141 837.82Z" fill="#006CB5"/>
<path d="M61.8551 837.82C61.8551 869.985 35.7799 896.06 3.61467 896.06C-28.5506 896.06 -54.6257 869.985 -54.6257 837.82C-54.6257 805.655 -28.5506 779.579 3.61467 779.579C35.7799 779.579 61.8551 805.655 61.8551 837.82ZM-28.4176 837.82C-28.4176 855.511 -14.0762 869.852 3.61467 869.852C21.3056 869.852 35.6469 855.511 35.6469 837.82C35.6469 820.129 21.3056 805.788 3.61467 805.788C-14.0762 805.788 -28.4176 820.129 -28.4176 837.82Z" fill="#006CB5"/>
<path d="M443.932 584.044C443.932 616.21 417.857 642.285 385.692 642.285C353.527 642.285 327.452 616.21 327.452 584.044C327.452 551.879 353.527 525.804 385.692 525.804C417.857 525.804 443.932 551.879 443.932 584.044ZM353.66 584.044C353.66 601.735 368.001 616.077 385.692 616.077C403.383 616.077 417.724 601.735 417.724 584.044C417.724 566.353 403.383 552.012 385.692 552.012C368.001 552.012 353.66 566.353 353.66 584.044Z" fill="#6FBD4B"/>
<path d="M188.377 584.044C188.377 616.21 162.302 642.285 130.137 642.285C97.9715 642.285 71.8964 616.21 71.8964 584.044C71.8964 551.879 97.9715 525.804 130.137 525.804C162.302 525.804 188.377 551.879 188.377 584.044ZM98.1045 584.044C98.1045 601.735 112.446 616.077 130.137 616.077C147.828 616.077 162.169 601.735 162.169 584.044C162.169 566.353 147.828 552.012 130.137 552.012C112.446 552.012 98.1045 566.353 98.1045 584.044Z" fill="#6FBD4B"/>
<path d="M316.972 584.044C316.972 616.21 290.896 642.285 258.731 642.285C226.566 642.285 200.491 616.21 200.491 584.044C200.491 551.879 226.566 525.804 258.731 525.804C290.896 525.804 316.972 551.879 316.972 584.044ZM226.699 584.044C226.699 601.735 241.04 616.077 258.731 616.077C276.422 616.077 290.763 601.735 290.763 584.044C290.763 566.353 276.422 552.012 258.731 552.012C241.04 552.012 226.699 566.353 226.699 584.044Z" fill="#F48A1F"/>
<path d="M62.4133 584.044C62.4133 616.21 36.3382 642.285 4.17289 642.285C-27.9924 642.285 -54.0675 616.21 -54.0675 584.044C-54.0675 551.879 -27.9924 525.804 4.17289 525.804C36.3382 525.804 62.4133 551.879 62.4133 584.044ZM-27.8593 584.044C-27.8593 601.735 -13.518 616.077 4.17289 616.077C21.8638 616.077 36.2051 601.735 36.2051 584.044C36.2051 566.353 21.8638 552.012 4.17289 552.012C-13.518 552.012 -27.8593 566.353 -27.8593 584.044Z" fill="#F48A1F"/>
<path d="M443.374 711.398C443.374 743.563 417.299 769.638 385.134 769.638C352.969 769.638 326.893 743.563 326.893 711.398C326.893 679.233 352.969 653.157 385.134 653.157C417.299 653.157 443.374 679.233 443.374 711.398ZM353.102 711.398C353.102 729.089 367.443 743.43 385.134 743.43C402.825 743.43 417.166 729.089 417.166 711.398C417.166 693.707 402.825 679.366 385.134 679.366C367.443 679.366 353.102 693.707 353.102 711.398Z" fill="#F48A1F"/>
<path d="M187.819 711.398C187.819 743.563 161.744 769.638 129.579 769.638C97.4132 769.638 71.3381 743.563 71.3381 711.398C71.3381 679.233 97.4132 653.157 129.579 653.157C161.744 653.157 187.819 679.233 187.819 711.398ZM97.5463 711.398C97.5463 729.089 111.888 743.43 129.579 743.43C147.269 743.43 161.611 729.089 161.611 711.398C161.611 693.707 147.269 679.366 129.579 679.366C111.888 679.366 97.5463 693.707 97.5463 711.398Z" fill="#F48A1F"/>
<path d="M316.413 711.398C316.413 743.563 290.338 769.638 258.173 769.638C226.008 769.638 199.932 743.563 199.932 711.398C199.932 679.233 226.008 653.157 258.173 653.157C290.338 653.157 316.413 679.233 316.413 711.398ZM226.141 711.398C226.141 729.089 240.482 743.43 258.173 743.43C275.864 743.43 290.205 729.089 290.205 711.398C290.205 693.707 275.864 679.366 258.173 679.366C240.482 679.366 226.141 693.707 226.141 711.398Z" fill="#6FBD4B"/>
<path d="M61.8551 711.398C61.8551 743.563 35.7799 769.638 3.61467 769.638C-28.5506 769.638 -54.6257 743.563 -54.6257 711.398C-54.6257 679.233 -28.5506 653.157 3.61467 653.157C35.7799 653.157 61.8551 679.233 61.8551 711.398ZM-28.4176 711.398C-28.4176 729.089 -14.0762 743.43 3.61467 743.43C21.3056 743.43 35.6469 729.089 35.6469 711.398C35.6469 693.707 21.3056 679.366 3.61467 679.366C-14.0762 679.366 -28.4176 693.707 -28.4176 711.398Z" fill="#6FBD4B"/>
<path d="M443.932 457.622C443.932 489.788 417.857 515.863 385.692 515.863C353.527 515.863 327.452 489.788 327.452 457.622C327.452 425.457 353.527 399.382 385.692 399.382C417.857 399.382 443.932 425.457 443.932 457.622ZM353.66 457.622C353.66 475.313 368.001 489.655 385.692 489.655C403.383 489.655 417.724 475.313 417.724 457.622C417.724 439.932 403.383 425.59 385.692 425.59C368.001 425.59 353.66 439.932 353.66 457.622Z" fill="#0267AC"/>
<path d="M188.377 457.622C188.377 489.788 162.302 515.863 130.137 515.863C97.9715 515.863 71.8964 489.788 71.8964 457.622C71.8964 425.457 97.9715 399.382 130.137 399.382C162.302 399.382 188.377 425.457 188.377 457.622ZM98.1045 457.622C98.1045 475.313 112.446 489.655 130.137 489.655C147.828 489.655 162.169 475.313 162.169 457.622C162.169 439.932 147.828 425.59 130.137 425.59C112.446 425.59 98.1045 439.932 98.1045 457.622Z" fill="#006CB5"/>
<path d="M316.972 457.622C316.972 489.788 290.896 515.863 258.731 515.863C226.566 515.863 200.491 489.788 200.491 457.622C200.491 425.457 226.566 399.382 258.731 399.382C290.896 399.382 316.972 425.457 316.972 457.622ZM226.699 457.622C226.699 475.313 241.04 489.655 258.731 489.655C276.422 489.655 290.763 475.313 290.763 457.622C290.763 439.932 276.422 425.59 258.731 425.59C241.04 425.59 226.699 439.932 226.699 457.622Z" fill="#FCB913"/>
<path d="M62.4133 457.622C62.4133 489.788 36.3382 515.863 4.17289 515.863C-27.9924 515.863 -54.0675 489.788 -54.0675 457.622C-54.0675 425.457 -27.9924 399.382 4.17289 399.382C36.3382 399.382 62.4133 425.457 62.4133 457.622ZM-27.8593 457.622C-27.8593 475.313 -13.518 489.655 4.17289 489.655C21.8638 489.655 36.2051 475.313 36.2051 457.622C36.2051 439.932 21.8638 425.59 4.17289 425.59C-13.518 425.59 -27.8593 439.932 -27.8593 457.622Z" fill="#FCB913"/>
</g>
<defs>
<clipPath id="clip0_854_1067">
<rect width="390" height="844" fill="white"/>
</clipPath>
</defs>
</svg>
