<svg width="1921" height="1081" viewBox="0 0 1921 1081" fill="none" xmlns="http://www.w3.org/2000/svg">
<g clip-path="url(#clip0_1623_2061)">
<rect width="1920" height="1080" transform="translate(0.351562 0.118164)" fill="#231F20"/>
<path d="M1725.48 765.471C1725.48 889.32 1625.08 989.72 1501.23 989.72C1377.38 989.72 1276.98 889.32 1276.98 765.471C1276.98 641.621 1377.38 541.222 1501.23 541.222C1625.08 541.222 1725.48 641.621 1725.48 765.471ZM1377.89 765.471C1377.89 833.588 1433.11 888.808 1501.23 888.808C1569.35 888.808 1624.57 833.588 1624.57 765.471C1624.57 697.354 1569.35 642.134 1501.23 642.134C1433.11 642.134 1377.89 697.354 1377.89 765.471Z" fill="#0267AC"/>
<path d="M772.288 765.471C772.288 889.32 671.889 989.72 548.039 989.72C424.19 989.72 323.79 889.32 323.79 765.471C323.79 641.621 424.19 541.222 548.039 541.222C671.889 541.222 772.288 641.621 772.288 765.471ZM424.702 765.471C424.702 833.588 479.922 888.808 548.039 888.808C616.156 888.808 671.376 833.588 671.376 765.471C671.376 697.354 616.156 642.134 548.039 642.134C479.922 642.134 424.702 697.354 424.702 765.471Z" fill="#F48A1F"/>
<path d="M1248.18 765.471C1248.18 889.32 1147.78 989.72 1023.93 989.72C900.081 989.72 799.682 889.32 799.682 765.471C799.682 641.621 900.081 541.222 1023.93 541.222C1147.78 541.222 1248.18 641.621 1248.18 765.471ZM900.594 765.471C900.594 833.588 955.814 888.808 1023.93 888.808C1092.05 888.808 1147.27 833.588 1147.27 765.471C1147.27 697.354 1092.05 642.134 1023.93 642.134C955.814 642.134 900.594 697.354 900.594 765.471Z" fill="#6FBD4B"/>
<path d="M294.977 765.471C294.977 889.32 194.577 989.72 70.7276 989.72C-53.1217 989.72 -153.521 889.32 -153.521 765.471C-153.521 641.621 -53.1217 541.222 70.7276 541.222C194.577 541.222 294.977 641.621 294.977 765.471ZM-52.6094 765.471C-52.6094 833.588 2.61048 888.808 70.7276 888.808C138.845 888.808 194.065 833.588 194.065 765.471C194.065 697.354 138.845 642.134 70.7276 642.134C2.61048 642.134 -52.6094 697.354 -52.6094 765.471Z" fill="#FCB814"/>
</g>
<defs>
<clipPath id="clip0_1623_2061">
<rect width="1920" height="1080" fill="white" transform="translate(0.351562 0.118164)"/>
</clipPath>
</defs>
</svg>
