<svg width="1280" height="720" viewBox="0 0 1280 720" fill="none" xmlns="http://www.w3.org/2000/svg">
<g clip-path="url(#clip0_1623_2265)">
<rect width="1280" height="720" fill="#231F20"/>
<path d="M1075.13 493.868C1075.13 573.82 1010.31 638.633 930.362 638.633C850.411 638.633 785.598 573.82 785.598 493.868C785.598 413.917 850.411 349.104 930.362 349.104C1010.31 349.104 1075.13 413.917 1075.13 493.868ZM850.742 493.868C850.742 537.842 886.389 573.489 930.362 573.489C974.336 573.489 1009.98 537.842 1009.98 493.868C1009.98 449.895 974.336 414.248 930.362 414.248C886.389 414.248 850.742 449.895 850.742 493.868Z" fill="#0267AC"/>
<path d="M459.797 493.868C459.797 573.82 394.984 638.633 315.032 638.633C235.081 638.633 170.268 573.82 170.268 493.868C170.268 413.917 235.081 349.104 315.032 349.104C394.984 349.104 459.797 413.917 459.797 493.868ZM235.412 493.868C235.412 537.842 271.059 573.489 315.032 573.489C359.006 573.489 394.653 537.842 394.653 493.868C394.653 449.895 359.006 414.248 315.032 414.248C271.059 414.248 235.412 449.895 235.412 493.868Z" fill="#F48A1F"/>
<path d="M766.994 493.868C766.994 573.82 702.181 638.633 622.23 638.633C542.278 638.633 477.465 573.82 477.465 493.868C477.465 413.917 542.278 349.104 622.23 349.104C702.181 349.104 766.994 413.917 766.994 493.868ZM542.609 493.868C542.609 537.842 578.256 573.489 622.23 573.489C666.203 573.489 701.85 537.842 701.85 493.868C701.85 449.895 666.203 414.248 622.23 414.248C578.256 414.248 542.609 449.895 542.609 493.868Z" fill="#6FBD4B"/>
<path d="M151.657 493.868C151.657 573.82 86.8431 638.633 6.89175 638.633C-73.0596 638.633 -137.873 573.82 -137.873 493.868C-137.873 413.917 -73.0596 349.104 6.89175 349.104C86.8431 349.104 151.657 413.917 151.657 493.868ZM-72.7289 493.868C-72.7289 537.842 -37.0815 573.489 6.89175 573.489C50.865 573.489 86.5124 537.842 86.5124 493.868C86.5124 449.895 50.865 414.248 6.89175 414.248C-37.0815 414.248 -72.7289 449.895 -72.7289 493.868Z" fill="#FCB814"/>
</g>
<defs>
<clipPath id="clip0_1623_2265">
<rect width="1280" height="720" fill="white"/>
</clipPath>
</defs>
</svg>
